<?xml version="1.0" encoding="UTF-8"?>
<!DOCTYPE svg PUBLIC "-//W3C//DTD SVG 1.1//EN" "http://www.w3.org/Graphics/SVG/1.1/DTD/svg11.dtd">
<!-- Creator: CorelDRAW -->
<svg xmlns="http://www.w3.org/2000/svg" xml:space="preserve" width="37.9524mm" height="13.7512mm" version="1.1" style="shape-rendering:geometricPrecision; text-rendering:geometricPrecision; image-rendering:optimizeQuality; fill-rule:evenodd; clip-rule:evenodd"
viewBox="0 0 4368.3 1582.75"
 xmlns:xlink="http://www.w3.org/1999/xlink"
 xmlns:xodm="http://www.corel.com/coreldraw/odm/2003">
 <defs>
  <style type="text/css">
   <![CDATA[
    .fil1 {fill:#6633FF}
    .fil0 {fill:#6666FF}
    .fil4 {fill:#CCCCFF}
    .fil3 {fill:#FF6666}
    .fil2 {fill:#FF9933}
   ]]>
  </style>
 </defs>
 <g id="Layer_x0020_1">
  <metadata id="CorelCorpID_0Corel-Layer"/>
  <g id="_105553316583616">
   <path class="fil0" d="M1832.09 1266.21c-17.63,-72.87 343.4,-573.57 403.54,-689.27 -2.2,-3.98 -4.19,-14.21 -6.78,-11.86 -2.56,2.33 -5.16,-9.07 -6.65,-11.68 -108.61,-191.33 -39.79,-199.14 -243.33,-274.35l-278.78 1119.99 525.34 183.71 359.78 -817.9c-102.09,-78.56 -97.34,-98.15 -243.32,-156.34 147.35,-316.28 183.19,-269.3 353.47,-260.42 29.76,1.55 71.71,6.32 93.61,6.8 77.36,1.69 44.93,14.09 80.57,-26.89 -34.1,-27.53 -313.88,-52.31 -368.44,-35.73 -50.53,15.35 -188.24,265.7 -226.43,324.84l-321.53 505.24c-79.68,127.05 -62.06,137.24 -121.03,143.85z"/>
   <path class="fil0" d="M2300.84 459.04c57.71,-44 120.61,-167.26 165.24,-236.79 66.72,9.38 254.43,32.99 311.06,0.93 -62.5,-152.06 -187.42,-286.52 -389.65,-191.38 -183.39,86.29 -202.15,317.14 -86.65,427.24z"/>
  </g>
  <path class="fil1" d="M1101.49 830.11c184.78,-23.13 302.79,4.01 221.01,188.9l-225.27 0.75 4.26 -189.65zm-271.51 585.3l256.34 -27.01 41.38 -190.54c90.51,75.57 199.4,235.17 364.68,241.74 181.98,-120.52 223.22,-363.94 223.22,-363.94 -19.57,49.75 -140.78,86.29 -175.43,78.88 128.83,-151.59 86.45,-404.71 -58.56,-520.91 -135.91,-108.9 -448.88,-89.12 -651.67,-77.13l0.05 858.91z"/>
  <path class="fil2" d="M2631.55 1414.54l266.46 3.03 3.5 -352.74 437.29 331.26c42.26,34.14 105.47,99.54 159.1,107.91l0.47 -938.45 -268.84 -10.01 -3.95 402.69 -591 -451.05 -3.03 907.39z"/>
  <path class="fil3" d="M274.09 1147.75l-6.42 -320.68c140.61,-1.25 242.72,20.96 243.22,160.17 0.48,138.89 -103.66,161.43 -236.79,160.51zm-274.1 270.13c182.25,-1.35 405.06,27.53 554.18,-53.26 310.43,-168.17 298.53,-594.27 1.1,-756.18 -151.59,-82.5 -371.37,-51.15 -552.6,-51.98l-2.68 861.42z"/>
  <path class="fil4" d="M3878.8 826.68l-6.38 -267.89 -266.03 -4.34 0.91 863.08 264.79 -1.61 2.94 -279.1 311.32 295.77c69.65,-58.49 157.44,-125.19 179.41,-212 -82.09,-52.67 -176.67,-155.48 -248.86,-227.82 42.26,-92.28 181.45,-198.3 251.41,-278.76 -63.24,-61.54 -107.86,-140.75 -204.44,-179.65l-285.07 292.32z"/>
 </g>
</svg>
